<?xml version="1.0" standalone="yes"?>
<svg xmlns="http://www.w3.org/2000/svg" width="96" height="96">
<path style="fill:#010101; stroke:none;" d="M0 0L0 96L96 96L96 0L0 0z"/>
<path style="fill:#495cff; stroke:none;" d="M10 40L14 40L14 36L16 36L16 40L20 40L20 36C35.6196 35.9483 51.4176 34.6918 67 35.4552C72.6853 35.7338 79.9973 33.4313 82 40L86 40C87.3363 35.5697 91.485 32.8501 91.8758 28C92.2433 23.4378 89.8388 21.3462 87.5548 17.8302C85.8697 15.2363 85.7342 11.7303 82.8519 10.0278C74.2466 4.94503 52.9556 9 43 9C35.7332 9 18.077 5.79467 12.3171 10.6034C8.20231 14.0387 2.63683 25.6557 4.60262 30.9853C5.87034 34.4223 8.91636 36.4342 10 40z"/>
<path style="fill:#010101; stroke:none;" d="M12 22L85 22L78.8526 12.7423L65 12L33 12L17.1474 12.7423L12 22M8 26C9.06033 32.6479 14.9397 32.6479 16 26L8 26z"/>
<path style="fill:#bbaeff; stroke:none;" d="M20.8511 27.027C17.8449 29.9527 23.6071 33.9025 26.5231 31.3819C30.7985 27.6864 23.8066 24.1506 20.8511 27.027z"/>
<path style="fill:#010101; stroke:none;" d="M32 26C33.0603 32.6479 38.9397 32.6479 40 26L32 26z"/>
<path style="fill:#bbaeff; stroke:none;" d="M44.8511 27.027C41.8449 29.9527 47.6072 33.9025 50.5231 31.3819C54.7985 27.6864 47.8066 24.1506 44.8511 27.027z"/>
<path style="fill:#010101; stroke:none;" d="M56 26C57.0603 32.6479 62.9397 32.6479 64 26L56 26z"/>
<path style="fill:#bbaeff; stroke:none;" d="M68.8511 27.027C65.8449 29.9527 71.6072 33.9025 74.5231 31.3819C78.7985 27.6864 71.8066 24.1506 68.8511 27.027z"/>
<path style="fill:#010101; stroke:none;" d="M80 26C81.0603 32.6479 86.9397 32.6479 88 26L80 26M20 36L20 58L51 58L51 62C43.7409 62 22.5598 65.5649 17.6034 59.6821C13.5723 54.8976 16 41.9768 16 36L14 36C14 43.1397 10.7753 61.0105 15.6034 66.5664C21.0001 72.7766 43.2456 69 51 69L51 72L41 72L41 78L54 78C54 70.3017 50.1335 46.8139 56.3179 41.6034C61.3755 37.3422 75.6521 40 82 40C80.8119 33.1001 72.5461 35.4335 67 34.9691C51.5723 33.6775 35.5195 35.8287 20 36z"/>
<path style="fill:#6b3dff; stroke:none;" d="M11 39L10 59L14 59L13 39L11 39M17 39L16 59L51 59L51 58L20 58L19 39L17 39M54 58L57 58L58.6034 45.902L67 46.9421L82 44L82 59L86 59L85 39C78.6194 40.1846 58.7112 36.7979 55.0278 42.3179C52.5411 46.0445 54 53.683 54 58z"/>
<path style="fill:#010101; stroke:none;" d="M82 44C76.3169 44.8792 72.1504 47.9647 66 46.7014C63.7933 46.2481 59.9919 43.4964 58.0278 45.6613C56.3131 47.5513 57.001 51.6768 57 54C56.9972 60.2581 53.9845 77.7778 58.6034 82.3966C61.4495 85.2427 78.3819 85.6671 80.9722 82.3966C82.9117 79.9478 82 74.9104 82 72L82 44z"/>
<path style="fill:#6b3dff; stroke:none;" d="M60 54L60 57L80 57L80 54L60 54z"/>
<path style="fill:#a632ff; stroke:none;" d="M11 58C5.79355 75.6206 25.74 72 37 72L37 78L21 84L21 87L68 87C72.2405 87 81.13 88.6632 84.3966 85.3966C88.6407 81.1525 86.5747 63.3274 85 58L83 58C81.0021 64.7591 84.8436 75.8804 80.9722 81.6821C77.9721 86.178 60.7208 85.4002 58.0278 80.8519C54.8252 75.4429 57 64.1621 57 58L54 58L54 78L41 78L41 72L51 72L51 69C36.628 69 17.9513 74.1056 13 58L11 58M16 59C22.5081 65.6458 42.0479 62 51 62L51 59L16 59M63 60L63 63L77 63L77 60L63 60M66 66L66 69L74 69L74 66L66 66M63 78L63 81L77 81L77 78L63 78z"/>
<path style="fill:#010101; stroke:none;" d="M33 84L54 84L54 81C47.4546 81 37.8722 79.0247 33 84z"/>
</svg>
